<?xml version="1.0" standalone="no"?><!DOCTYPE svg PUBLIC "-//W3C//DTD SVG 1.1//EN" "http://www.w3.org/Graphics/SVG/1.1/DTD/svg11.dtd"><svg t="1658133779983" class="icon" viewBox="0 0 1024 1024" version="1.1" xmlns="http://www.w3.org/2000/svg" p-id="44526" xmlns:xlink="http://www.w3.org/1999/xlink" width="200" height="200"><defs><style type="text/css">@font-face { font-family: feedback-iconfont; src: url("//at.alicdn.com/t/font_1031158_u69w8yhxdu.woff2?t=1630033759944") format("woff2"), url("//at.alicdn.com/t/font_1031158_u69w8yhxdu.woff?t=1630033759944") format("woff"), url("//at.alicdn.com/t/font_1031158_u69w8yhxdu.ttf?t=1630033759944") format("truetype"); }
</style></defs><path d="M102.4 563.2c-10.24 0-17.066667-6.826667-17.066667-17.066667v-68.266666c0-10.24 6.826667-17.066667 17.066667-17.066667s17.066667 6.826667 17.066667 17.066667v68.266666c0 10.24-6.826667 17.066667-17.066667 17.066667zM245.76 593.92H238.933333c-10.24-3.413333-13.653333-13.653333-6.826666-23.893333l27.306666-61.44c3.413333-10.24 13.653333-13.653333 23.893334-6.826667 10.24 3.413333 13.653333 13.653333 6.826666 23.893333l-27.306666 61.44c-3.413333 3.413333-10.24 6.826667-17.066667 6.826667zM546.133333 904.533333h-102.4c-10.24 0-17.066667-6.826667-17.066666-17.066666s6.826667-17.066667 17.066666-17.066667h102.4c10.24 0 17.066667 6.826667 17.066667 17.066667s-6.826667 17.066667-17.066667 17.066666zM413.013333 761.173333c-6.826667 0-13.653333-3.413333-17.066666-10.24-3.413333-10.24 0-17.066667 6.826666-23.893333l61.44-27.306667c10.24-3.413333 17.066667 0 23.893334 6.826667 3.413333 10.24 0 17.066667-6.826667 23.893333l-61.44 27.306667c-3.413333 3.413333-6.826667 3.413333-6.826667 3.413333zM344.746667 662.186667c-3.413333 0-10.24 0-13.653334-3.413334-6.826667-6.826667-6.826667-17.066667 0-23.893333l47.786667-47.786667c6.826667-6.826667 17.066667-6.826667 23.893333 0s6.826667 17.066667 0 23.893334l-47.786666 47.786666c-3.413333 3.413333-6.826667 3.413333-10.24 3.413334z" fill="" p-id="44527"></path><path d="M512 1006.933333C238.933333 1006.933333 17.066667 785.066667 17.066667 512S238.933333 17.066667 512 17.066667 1006.933333 238.933333 1006.933333 512 785.066667 1006.933333 512 1006.933333z m0-955.733333C259.413333 51.2 51.2 259.413333 51.2 512S259.413333 972.8 512 972.8 972.8 764.586667 972.8 512 764.586667 51.2 512 51.2z" fill="" p-id="44528"></path><path d="M989.866667 529.066667C716.8 529.066667 494.933333 307.2 494.933333 34.133333c0-10.24 6.826667-17.066667 17.066667-17.066666s17.066667 6.826667 17.066667 17.066666c0 252.586667 208.213333 460.8 460.8 460.8 10.24 0 17.066667 6.826667 17.066666 17.066667s-6.826667 17.066667-17.066666 17.066667zM512 1006.933333c-10.24 0-17.066667-6.826667-17.066667-17.066666 0-252.586667-208.213333-460.8-460.8-460.8-10.24 0-17.066667-6.826667-17.066666-17.066667s6.826667-17.066667 17.066666-17.066667c273.066667 0 494.933333 221.866667 494.933334 494.933334 0 10.24-6.826667 17.066667-17.066667 17.066666z" fill="" p-id="44529"></path><path d="M921.6 546.133333c-10.24 0-17.066667-6.826667-17.066667-17.066666v-68.266667c0-10.24 6.826667-17.066667 17.066667-17.066667s17.066667 6.826667 17.066667 17.066667v68.266667c0 10.24-6.826667 17.066667-17.066667 17.066666zM747.52 508.586667h-6.826667c-10.24-3.413333-13.653333-13.653333-6.826666-23.893334l27.306666-61.44c3.413333-10.24 13.653333-13.653333 23.893334-6.826666 10.24 3.413333 13.653333 13.653333 6.826666 23.893333l-27.306666 61.44c-3.413333 3.413333-10.24 6.826667-17.066667 6.826667zM563.2 153.6H477.866667c-10.24 0-17.066667-6.826667-17.066667-17.066667s6.826667-17.066667 17.066667-17.066666h85.333333c10.24 0 17.066667 6.826667 17.066667 17.066666s-6.826667 17.066667-17.066667 17.066667zM549.546667 310.613333c-6.826667 0-13.653333-3.413333-17.066667-10.24-3.413333-10.24 0-17.066667 6.826667-23.893333l61.44-27.306667c10.24-3.413333 17.066667 0 23.893333 6.826667 3.413333 10.24 0 17.066667-6.826667 23.893333l-61.44 27.306667c0 3.413333-3.413333 3.413333-6.826666 3.413333zM631.466667 426.666667c-3.413333 0-10.24 0-13.653334-3.413334-6.826667-6.826667-6.826667-17.066667 0-23.893333l47.786667-47.786667c6.826667-6.826667 17.066667-6.826667 23.893333 0s6.826667 17.066667 0 23.893334l-47.786666 47.786666s-6.826667 3.413333-10.24 3.413334z" fill="" p-id="44530"></path></svg>