<?xml version="1.0" standalone="no"?><!DOCTYPE svg PUBLIC "-//W3C//DTD SVG 1.1//EN" "http://www.w3.org/Graphics/SVG/1.1/DTD/svg11.dtd"><svg t="1658133827612" class="icon" viewBox="0 0 1024 1024" version="1.1" xmlns="http://www.w3.org/2000/svg" p-id="48369" xmlns:xlink="http://www.w3.org/1999/xlink" width="200" height="200"><defs><style type="text/css">@font-face { font-family: feedback-iconfont; src: url("//at.alicdn.com/t/font_1031158_u69w8yhxdu.woff2?t=1630033759944") format("woff2"), url("//at.alicdn.com/t/font_1031158_u69w8yhxdu.woff?t=1630033759944") format("woff"), url("//at.alicdn.com/t/font_1031158_u69w8yhxdu.ttf?t=1630033759944") format("truetype"); }
</style></defs><path d="M962.31936 864H189.15136a80.48 80.48 0 0 1-57.072-23.952l-102.56-104.432A46.304 46.304 0 0 1 16.07936 701.664a46.288 46.288 0 0 1 15.184-33.152c18.736-17.2 49.2-18.128 65.984-1.328l89.472 87.2c9.008 8.784 20.912 13.616 33.504 13.616h742.08c24.384 0 45.76 22.432 45.76 48v2.064A45.904 45.904 0 0 1 962.31936 864zM66.28736 686.56c-4.608 0-9.6 2.08-13.392 5.536a14.56 14.56 0 0 0-0.56 21.088l102.56 104.448c8.96 9.12 21.456 14.368 34.24 14.368H962.31936c7.456 0 13.76-6.384 13.76-13.936V816c0-8.08-6.816-16-13.76-16H220.23936a79.568 79.568 0 0 1-55.84-22.704L74.79936 689.952a11.472 11.472 0 0 0-8.48-3.392z" fill="#1D1D1D" p-id="48370"></path><path d="M208.06336 992a16 16 0 0 1-12.784-25.6l96-128a15.984 15.984 0 1 1 25.6 19.2l-96 128a15.968 15.968 0 0 1-12.816 6.4zM944.09536 992a15.984 15.984 0 0 1-12.8-6.4l-96-128a16 16 0 1 1 25.584-19.2l96 128A16 16 0 0 1 944.07936 992zM82.67136 512a64.56 64.56 0 0 1-61.248-43.888l-5.168-15.312A303.984 303.984 0 0 1 32.07936 218.848C68.55936 145.28 131.64736 90.32 209.67936 64.112A308.304 308.304 0 0 1 307.91936 48a307.424 307.424 0 0 1 291.584 208.96l5.184 15.312a63.888 63.888 0 0 1-3.328 49.168 64.16 64.16 0 0 1-37.296 32.512 65.76 65.76 0 0 1-53.12-5.36 64.112 64.112 0 0 1-39.04 36.288 65.68 65.68 0 0 1-53.12-5.36 64.16 64.16 0 0 1-39.04 36.304 65.68 65.68 0 0 1-53.12-5.36 64.16 64.16 0 0 1-39.04 36.304 65.728 65.728 0 0 1-53.12-5.376 64.16 64.16 0 0 1-39.04 36.304 65.808 65.808 0 0 1-53.12-5.36 64.16 64.16 0 0 1-39.04 36.304c-6.672 2.224-13.6 3.36-20.592 3.36zM307.91936 80c-29.856 0-59.472 4.864-88.048 14.448a273.6 273.6 0 0 0-159.152 138.624 272.224 272.224 0 0 0-14.144 209.488l5.168 15.296c5.6 16.576 24.416 26.128 41.344 20.432a32.32 32.32 0 0 0 18.816-16.384 32.16 32.16 0 0 0 1.68-24.736 15.92 15.92 0 0 1 10.048-20.272 15.968 15.968 0 0 1 20.272 10.048c5.584 16.56 24.464 26.016 41.344 20.4a32.384 32.384 0 0 0 20.496-41.104 15.968 15.968 0 0 1 10.032-20.272 15.936 15.936 0 0 1 20.288 10.032c5.6 16.56 24.48 26.048 41.344 20.416a32.368 32.368 0 0 0 18.816-16.384 32.16 32.16 0 0 0 1.68-24.72 16 16 0 0 1 30.32-10.24c5.584 16.56 24.464 26.032 41.328 20.416a32.384 32.384 0 0 0 20.512-41.12 15.968 15.968 0 0 1 10.016-20.272 15.952 15.952 0 0 1 20.288 10.032c5.6 16.576 24.512 26.08 41.344 20.416a32.368 32.368 0 0 0 18.832-16.384c3.84-7.76 4.432-16.528 1.664-24.72a16.016 16.016 0 0 1 30.32-10.24c5.6 16.576 24.512 26.032 41.344 20.416a32.384 32.384 0 0 0 20.496-41.12l-5.168-15.312A275.456 275.456 0 0 0 307.91936 80z" fill="#1D1D1D" p-id="48371"></path><path d="M223.21536 160.336a16 16 0 0 1-5.92-30.88c4.192-1.664 8.448-3.2 12.768-4.672a16 16 0 1 1 10.192 30.336c-3.76 1.264-7.472 2.624-11.136 4.08a15.952 15.952 0 0 1-5.904 1.136zM103.71136 270.4a16 16 0 0 1-14.32-23.104 242.688 242.688 0 0 1 82.512-94.032 16 16 0 0 1 17.76 26.624 210.688 210.688 0 0 0-71.6 81.616 16 16 0 0 1-14.352 8.896zM452.55936 800a16 16 0 0 1-15.168-10.88l-132.48-393.44a16 16 0 0 1 30.336-10.24l132.48 393.44A16 16 0 0 1 452.55936 800zM816.07936 544c-70.576 0-128-57.424-128-128s57.424-128 128-128 128 57.424 128 128-57.424 128-128 128z m0-224c-52.944 0-96 43.056-96 96s43.056 96 96 96 96-43.056 96-96-43.056-96-96-96z" fill="#1D1D1D" p-id="48372"></path><path d="M768.07936 432a16 16 0 0 1-16-16c0-22.704 12.224-43.92 31.888-55.36A16 16 0 0 1 800.07936 388.32 32.16 32.16 0 0 0 784.07936 416a16 16 0 0 1-16 16zM1008.07936 432h-32a16 16 0 0 1 0-32h32a16 16 0 0 1 0 32zM656.07936 432h-32a16 16 0 0 1 0-32h32a16 16 0 0 1 0 32zM816.07936 624a16 16 0 0 1-16-16v-32a16 16 0 0 1 32 0v32a16 16 0 0 1-16 16zM816.07936 272a16 16 0 0 1-16-16v-32a16 16 0 0 1 32 0v32a16 16 0 0 1-16 16z" fill="#1D1D1D" p-id="48373"></path><path d="M951.83936 567.76a15.952 15.952 0 0 1-11.312-4.688l-22.624-22.624a16 16 0 1 1 22.624-22.624l22.624 22.624a16 16 0 0 1-11.312 27.312zM702.94336 318.864a15.952 15.952 0 0 1-11.312-4.688l-22.624-22.624a16 16 0 1 1 22.624-22.624l22.624 22.624a16 16 0 0 1-11.312 27.312zM680.31936 567.76a16 16 0 0 1-11.312-27.312l22.624-22.624a16 16 0 1 1 22.624 22.624l-22.624 22.624a15.952 15.952 0 0 1-11.312 4.688zM929.21536 318.864a16 16 0 0 1-11.312-27.312l22.624-22.624a16 16 0 1 1 22.624 22.624l-22.624 22.624a15.952 15.952 0 0 1-11.312 4.688z" fill="#1D1D1D" p-id="48374"></path><path d="M896.07936 928H256.07936a16 16 0 0 1 0-32h640a16 16 0 0 1 0 32z" fill="#1D1D1D" p-id="48375"></path></svg>