<?xml version="1.0" standalone="no"?><!DOCTYPE svg PUBLIC "-//W3C//DTD SVG 1.1//EN" "http://www.w3.org/Graphics/SVG/1.1/DTD/svg11.dtd"><svg t="1658133916200" class="icon" viewBox="0 0 1031 1024" version="1.1" xmlns="http://www.w3.org/2000/svg" p-id="52481" xmlns:xlink="http://www.w3.org/1999/xlink" width="201.3671875" height="200"><defs><style type="text/css">@font-face { font-family: feedback-iconfont; src: url("//at.alicdn.com/t/font_1031158_u69w8yhxdu.woff2?t=1630033759944") format("woff2"), url("//at.alicdn.com/t/font_1031158_u69w8yhxdu.woff?t=1630033759944") format("woff"), url("//at.alicdn.com/t/font_1031158_u69w8yhxdu.ttf?t=1630033759944") format("truetype"); }
</style></defs><path d="M587.997184 657.271467a17.134933 17.134933 0 0 1-12.0832-4.983467l-290.133333-290.133333a17.066667 17.066667 0 0 1 24.132266-24.132267l290.133334 290.133333a17.066667 17.066667 0 0 1-12.049067 29.115734zM144.263851 810.871467a17.134933 17.134933 0 0 1-12.0832-4.983467c-58.2656-58.2656-38.1952-156.603733 17.066666-211.8656l136.533334-136.533333a17.066667 17.066667 0 0 1 24.132266 24.132266l-136.533333 136.533334c-42.7008 42.734933-60.2112 120.4224-17.066667 163.601066a17.066667 17.066667 0 0 1-12.049066 29.115734z" fill="" p-id="52482"></path><path d="M912.263851 691.4048h-324.266667a17.066667 17.066667 0 0 1 0-34.133333h324.266667a17.066667 17.066667 0 0 1 0 34.133333z" fill="" p-id="52483"></path><path d="M237.072384 936.925867a221.184 221.184 0 0 1-156.8768-64.853334l-15.633067-15.633066a222.173867 222.173867 0 0 1 0-313.787734L516.931584 90.282667a222.173867 222.173867 0 0 1 313.787733 0l15.633067 15.633066a222.139733 222.139733 0 0 1 0 313.7536L393.949184 872.072533a221.115733 221.115733 0 0 1-156.8768 64.853334zM673.808384 59.528533A187.221333 187.221333 0 0 0 541.063851 114.414933L88.694784 566.784a187.904 187.904 0 0 0 0 265.489067l15.633067 15.633066a186.4704 186.4704 0 0 0 132.744533 54.954667 186.368 186.368 0 0 0 132.744533-54.954667L822.220117 395.537067a186.4704 186.4704 0 0 0 54.954667-132.744534c0-50.141867-19.490133-97.28-54.954667-132.744533l-15.633066-15.633067a187.255467 187.255467 0 0 0-132.778667-54.8864z" fill="" p-id="52484"></path><path d="M690.397184 998.6048c-118.954667 0-227.464533-60.689067-290.269867-162.372267a17.066667 17.066667 0 0 1 2.4576-21.026133L822.220117 395.537067c6.8608-6.8608 13.5168-15.018667 20.957867-25.7024a17.066667 17.066667 0 0 1 22.801067-4.881067c103.765333 62.464 165.717333 171.758933 165.717333 292.317867 0.034133 188.177067-153.122133 341.333333-341.2992 341.333333z m-253.952-169.028267a305.083733 305.083733 0 0 0 253.917867 134.894934c169.403733 0 307.2-137.796267 307.2-307.2a304.571733 304.571733 0 0 0-136.0896-254.737067 187.972267 187.972267 0 0 1-15.121067 17.169067L436.445184 829.576533z" fill="" p-id="52485"></path></svg>