<?xml version="1.0" standalone="no"?><!DOCTYPE svg PUBLIC "-//W3C//DTD SVG 1.1//EN" "http://www.w3.org/Graphics/SVG/1.1/DTD/svg11.dtd"><svg t="1658142769679" class="icon" viewBox="0 0 1024 1024" version="1.1" xmlns="http://www.w3.org/2000/svg" p-id="55903" xmlns:xlink="http://www.w3.org/1999/xlink" width="200" height="200"><defs><style type="text/css">@font-face { font-family: feedback-iconfont; src: url("//at.alicdn.com/t/font_1031158_u69w8yhxdu.woff2?t=1630033759944") format("woff2"), url("//at.alicdn.com/t/font_1031158_u69w8yhxdu.woff?t=1630033759944") format("woff"), url("//at.alicdn.com/t/font_1031158_u69w8yhxdu.ttf?t=1630033759944") format("truetype"); }
</style></defs><path d="M790.924 294.479h-84.491v-50.5c0-68.095-55.399-123.495-123.495-123.495H443.944c-68.095 0-123.495 55.399-123.495 123.495v50.5h-86.99c-50.729 0-92 41.271-92 92V751.95c0 50.729 41.271 92 92 92h557.465c50.729 0 92-41.271 92-92V386.479c0-50.729-41.272-92-92-92z m-414.475-50.501c0-37.217 30.278-67.495 67.495-67.495h138.994c37.217 0 67.495 30.278 67.495 67.495v48.997H376.449v-48.997zM826.924 751.95c0 19.851-16.149 36-36 36H233.458c-19.851 0-36-16.149-36-36V386.479c0-19.851 16.149-36 36-36h557.465c19.851 0 36 16.149 36 36V751.95z" p-id="55904"></path><path d="M631.684 542.966h-92.245V450.72c0-14.497-11.752-26.249-26.249-26.249-14.497 0-26.249 11.752-26.249 26.249v92.245h-92.245c-14.497 0-26.249 11.752-26.249 26.249s11.752 26.249 26.249 26.249h92.245v92.245c0 14.497 11.752 26.249 26.249 26.249 14.497 0 26.249-11.752 26.249-26.249v-92.245h92.245c14.497 0 26.249-11.752 26.249-26.249s-11.752-26.248-26.249-26.248z" p-id="55905"></path></svg>