<?xml version="1.0" standalone="no"?><!DOCTYPE svg PUBLIC "-//W3C//DTD SVG 1.1//EN" "http://www.w3.org/Graphics/SVG/1.1/DTD/svg11.dtd"><svg t="1658133950332" class="icon" viewBox="0 0 1024 1024" version="1.1" xmlns="http://www.w3.org/2000/svg" p-id="53697" xmlns:xlink="http://www.w3.org/1999/xlink" width="200" height="200"><defs><style type="text/css">@font-face { font-family: feedback-iconfont; src: url("//at.alicdn.com/t/font_1031158_u69w8yhxdu.woff2?t=1630033759944") format("woff2"), url("//at.alicdn.com/t/font_1031158_u69w8yhxdu.woff?t=1630033759944") format("woff"), url("//at.alicdn.com/t/font_1031158_u69w8yhxdu.ttf?t=1630033759944") format("truetype"); }
</style></defs><path d="M637.155556 634.311111v187.733333c0 38.4 31.288889 69.688889 69.688888 69.688889s69.688889-31.288889 69.688889-69.688889V634.311111h-139.377777z m119.466666-122.311111V139.377778c0-8.533333-5.688889-14.222222-14.222222-14.222222-79.644444 0-145.066667 65.422222-145.066667 143.644444v147.911111c0 8.533333 5.688889 14.222222 14.222223 14.222222 21.333333 0 38.4 17.066667 38.4 38.4v42.666667h-12.8v95.288889h139.377777V512h-19.911111zM625.777778 405.333333V270.222222c0-58.311111 44.088889-108.088889 100.977778-115.2V497.777778h-49.777778v-28.444445c1.422222-31.288889-21.333333-58.311111-51.2-64z m-125.155556 371.2c-9.955556 0-19.911111 2.844444-28.444444 8.533334V132.266667c0-8.533333-5.688889-14.222222-14.222222-14.222223-68.266667 0-125.155556 55.466667-125.155556 125.155556v541.866667c-8.533333-4.266667-18.488889-8.533333-28.444444-8.533334-31.288889 0-56.888889 25.6-56.888889 56.888889s25.6 56.888889 56.888889 56.888889 56.888889-25.6 56.888888-56.888889V725.333333h82.488889v108.088889c0 31.288889 25.6 56.888889 56.888889 56.888889s56.888889-25.6 56.888889-56.888889-25.6-56.888889-56.888889-56.888889z m-56.888889-79.644444h-82.488889V241.777778c0-48.355556 35.555556-88.177778 82.488889-95.288889V696.888889z" p-id="53698"></path></svg>