<?xml version="1.0" standalone="no"?><!DOCTYPE svg PUBLIC "-//W3C//DTD SVG 1.1//EN" "http://www.w3.org/Graphics/SVG/1.1/DTD/svg11.dtd"><svg t="1658133104387" class="icon" viewBox="0 0 1024 1024" version="1.1" xmlns="http://www.w3.org/2000/svg" p-id="12351" xmlns:xlink="http://www.w3.org/1999/xlink" width="200" height="200"><defs><style type="text/css">@font-face { font-family: feedback-iconfont; src: url("//at.alicdn.com/t/font_1031158_u69w8yhxdu.woff2?t=1630033759944") format("woff2"), url("//at.alicdn.com/t/font_1031158_u69w8yhxdu.woff?t=1630033759944") format("woff"), url("//at.alicdn.com/t/font_1031158_u69w8yhxdu.ttf?t=1630033759944") format("truetype"); }
</style></defs><path d="M768 42.667a170.667 170.667 0 0 1 170.667 170.666v256h55.466a8.533 8.533 0 0 1 8.363 6.827l0.17 1.707V524.8a8.533 8.533 0 0 1-8.533 8.533h-55.466v277.334a64 64 0 0 1-64 64v64A42.667 42.667 0 0 1 832 981.333h-85.333A42.667 42.667 0 0 1 704 938.667v-64H320v64a42.667 42.667 0 0 1-42.667 42.666H192a42.667 42.667 0 0 1-42.667-42.666v-64a64 64 0 0 1-64-64V533.333H29.867a8.533 8.533 0 0 1-8.534-8.533v-46.933c0-4.694 3.84-8.534 8.534-8.534h55.466v-256A170.667 170.667 0 0 1 256 42.667h512z m-512 832h-42.667v42.666H256v-42.666z m554.667 0H768v42.666h42.667v-42.666z m64-277.334H149.333v213.334h725.334V597.333z m-597.334 64a42.667 42.667 0 1 1 0 85.334 42.667 42.667 0 0 1 0-85.334z m469.334 0a42.667 42.667 0 1 1 0 85.334 42.667 42.667 0 0 1 0-85.334zM768 106.667H256a106.667 106.667 0 0 0-106.56 102.037l-0.107 4.63v320h725.334v-320a106.667 106.667 0 0 0-102.038-106.56l-4.629-0.107z" p-id="12352"></path></svg>