<?xml version="1.0" standalone="no"?><!DOCTYPE svg PUBLIC "-//W3C//DTD SVG 1.1//EN" "http://www.w3.org/Graphics/SVG/1.1/DTD/svg11.dtd"><svg t="1658133347228" class="icon" viewBox="0 0 1024 1024" version="1.1" xmlns="http://www.w3.org/2000/svg" p-id="22887" xmlns:xlink="http://www.w3.org/1999/xlink" width="200" height="200"><defs><style type="text/css">@font-face { font-family: feedback-iconfont; src: url("//at.alicdn.com/t/font_1031158_u69w8yhxdu.woff2?t=1630033759944") format("woff2"), url("//at.alicdn.com/t/font_1031158_u69w8yhxdu.woff?t=1630033759944") format("woff"), url("//at.alicdn.com/t/font_1031158_u69w8yhxdu.ttf?t=1630033759944") format("truetype"); }
</style></defs><path d="M742.445568 768h-512A128.1536 128.1536 0 0 1 102.445568 640v-512C102.445568 57.4464 159.891968 0 230.445568 0h512C812.999168 0 870.445568 57.4464 870.445568 128v512c0 70.5536-57.4464 128-128 128zM230.445568 51.2C188.103168 51.2 153.645568 85.6576 153.645568 128v512c0 42.3424 34.4576 76.8 76.8 76.8h512c42.3424 0 76.8-34.4576 76.8-76.8v-512c0-42.3424-34.4576-76.8-76.8-76.8h-512z" fill="" p-id="22888"></path><path d="M970.131968 986.9312l-102.4-204.8a25.6 25.6 0 0 0-45.824 22.8864l7.0656 14.1312H143.815168l7.0656-14.1312a25.6 25.6 0 0 0-45.824-22.8864l-102.4 204.8a25.6 25.6 0 0 0 45.824 22.8864l18.5344-37.0688H905.773568l18.5344 37.0688a25.6512 25.6512 0 0 0 45.824-22.8864zM92.666368 921.6l25.6-51.2h736.3584l25.6 51.2H92.666368zM281.645568 665.6c-42.3424 0-76.8-34.4576-76.8-76.8S239.303168 512 281.645568 512s76.8 34.4576 76.8 76.8S323.987968 665.6 281.645568 665.6z m0-102.4a25.6 25.6 0 1 0 0 51.2 25.6 25.6 0 0 0 0-51.2zM691.245568 665.6c-42.3424 0-76.8-34.4576-76.8-76.8s34.4576-76.8 76.8-76.8 76.8 34.4576 76.8 76.8-34.4576 76.8-76.8 76.8z m0-102.4a25.6 25.6 0 1 0 0 51.2 25.6 25.6 0 0 0 0-51.2zM640.045568 153.6h-307.2a25.6 25.6 0 0 1 0-51.2h307.2a25.6 25.6 0 0 1 0 51.2zM742.445568 204.8h-512a25.6 25.6 0 0 0-25.6 25.6v204.8a25.6 25.6 0 0 0 25.6 25.6h512a25.6 25.6 0 0 0 25.6-25.6v-204.8a25.6 25.6 0 0 0-25.6-25.6zM256.045568 256h204.8v153.6H256.045568V256z m460.8 153.6h-204.8V256h204.8v153.6z" fill="" p-id="22889"></path></svg>