<?xml version="1.0" standalone="no"?><!DOCTYPE svg PUBLIC "-//W3C//DTD SVG 1.1//EN" "http://www.w3.org/Graphics/SVG/1.1/DTD/svg11.dtd"><svg t="1658131364473" class="icon" viewBox="0 0 1024 1024" version="1.1" xmlns="http://www.w3.org/2000/svg" p-id="7144" xmlns:xlink="http://www.w3.org/1999/xlink" width="200" height="200"><defs><style type="text/css">@font-face { font-family: feedback-iconfont; src: url("//at.alicdn.com/t/font_1031158_u69w8yhxdu.woff2?t=1630033759944") format("woff2"), url("//at.alicdn.com/t/font_1031158_u69w8yhxdu.woff?t=1630033759944") format("woff"), url("//at.alicdn.com/t/font_1031158_u69w8yhxdu.ttf?t=1630033759944") format("truetype"); }
</style></defs><path d="M1000.727273 418.909091h-51.2c-9.309091-53.527273-27.927273-104.727273-53.527273-148.945455 20.945455-11.636364 34.909091-34.909091 34.909091-60.509091V162.909091c0-13.963636-9.309091-23.272727-23.272727-23.272727h-125.672728A439.854545 439.854545 0 0 0 605.090909 58.181818V23.272727c0-13.963636-9.309091-23.272727-23.272727-23.272727h-139.636364c-13.963636 0-23.272727 9.309091-23.272727 23.272727v34.909091c-65.163636 13.963636-125.672727 41.890909-176.872727 81.454546H116.363636c-13.963636 0-23.272727 9.309091-23.272727 23.272727v46.545454c0 25.6 13.963636 48.872727 34.909091 60.509091-25.6 44.218182-44.218182 95.418182-53.527273 148.945455H23.272727c-13.963636 0-23.272727 9.309091-23.272727 23.272727v46.545455c0 39.563636 30.254545 69.818182 69.818182 69.818182h6.981818c6.981818 41.890909 18.618182 81.454545 34.909091 116.363636-9.309091 2.327273-18.618182 11.636364-18.618182 23.272727v46.545455c0 39.563636 30.254545 69.818182 69.818182 69.818182h51.2c32.581818 30.254545 69.818182 55.854545 111.709091 74.472727l-18.618182 46.545454c-11.636364 25.6-37.236364 41.890909-65.163636 41.890909H209.454545c-13.963636 0-23.272727 9.309091-23.272727 23.272728s9.309091 23.272727 23.272727 23.272727h30.254546c46.545455 0 88.436364-27.927273 107.054545-72.145455l18.618182-46.545454c16.290909 6.981818 34.909091 11.636364 53.527273 13.963636 6.981818 32.581818 34.909091 58.181818 67.490909 58.181818h46.545455c34.909091 0 62.836364-23.272727 67.490909-55.854545 16.290909-4.654545 34.909091-6.981818 51.2-13.963636 0 0 2.327273 0 2.327272-2.327273l18.618182 46.545454c18.618182 44.218182 60.509091 72.145455 107.054546 72.145455H814.545455c13.963636 0 23.272727-9.309091 23.272727-23.272727s-9.309091-23.272727-23.272727-23.272728h-30.254546c-27.927273 0-53.527273-16.290909-65.163636-41.890909l-155.927273-367.709091c25.6-16.290909 41.890909-44.218182 41.890909-76.8 0-51.2-41.890909-93.090909-93.090909-93.090909s-93.090909 41.890909-93.090909 93.090909c0 32.581818 16.290909 60.509091 41.890909 76.8l-118.690909 279.272728c-30.254545-13.963636-58.181818-32.581818-83.781818-53.527273 9.309091-9.309091 16.290909-23.272727 18.618182-39.563636l2.327272-2.327273 132.654546-132.654546c9.309091-9.309091 9.309091-23.272727 0-32.581818s-23.272727-9.309091-32.581818 0l-102.4 102.4c-2.327273-6.981818-11.636364-13.963636-20.945455-13.963636H162.909091c-18.618182-37.236364-32.581818-74.472727-41.890909-116.363636 27.927273-2.327273 48.872727-20.945455 58.181818-46.545455H349.090909c13.963636 0 23.272727-9.309091 23.272727-23.272727s-9.309091-23.272727-23.272727-23.272728H186.181818v-23.272727c0-13.963636-9.309091-23.272727-23.272727-23.272727H123.345455c9.309091-51.2 27.927273-97.745455 53.527272-139.636364H209.454545c16.290909 0 32.581818-6.981818 44.218182-16.290909l125.672728 125.672727c4.654545 6.981818 11.636364 6.981818 16.290909 6.981819s11.636364-2.327273 16.290909-6.981819c9.309091-9.309091 9.309091-23.272727 0-32.581818L279.272727 223.418182s-2.327273-2.327273-4.654545-2.327273c4.654545-2.327273 4.654545-6.981818 4.654545-11.636364V169.890909c44.218182-32.581818 93.090909-55.854545 148.945455-67.490909 11.636364 23.272727 34.909091 37.236364 60.509091 37.236364v186.181818c0 13.963636 9.309091 23.272727 23.272727 23.272727s23.272727-9.309091 23.272727-23.272727V139.636364c25.6 0 48.872727-13.963636 60.509091-37.236364 55.854545 11.636364 104.727273 34.909091 148.945455 67.490909V209.454545c0 4.654545 0 9.309091 2.327272 13.963637-2.327273 0-2.327273 2.327273-4.654545 2.327273l-132.654545 132.654545c-9.309091 9.309091-9.309091 23.272727 0 32.581818 4.654545 4.654545 11.636364 4.654545 18.618181 4.654546s11.636364-2.327273 16.290909-6.981819l125.672728-125.672727c11.636364 9.309091 27.927273 16.290909 44.218182 16.290909h32.581818c25.6 41.890909 44.218182 88.436364 53.527272 139.636364H861.090909c-13.963636 0-23.272727 9.309091-23.272727 23.272727v23.272727h-162.909091c-13.963636 0-23.272727 9.309091-23.272727 23.272728s9.309091 23.272727 23.272727 23.272727h167.563636c9.309091 25.6 32.581818 44.218182 58.181818 46.545455-6.981818 41.890909-20.945455 81.454545-39.563636 116.363636h-93.090909c-9.309091 0-18.618182 6.981818-20.945455 16.290909l-102.4-102.4c-9.309091-9.309091-23.272727-9.309091-32.581818 0s-9.309091 23.272727 0 32.581818l132.654546 132.654546 2.327272 2.327272c2.327273 13.963636 9.309091 27.927273 18.618182 39.563637-4.654545 2.327273-6.981818 6.981818-9.309091 9.309091-6.981818 4.654545-13.963636 11.636364-20.945454 16.290909-11.636364 6.981818-13.963636 20.945455-6.981818 32.581818 6.981818 11.636364 20.945455 13.963636 32.581818 6.981818 9.309091-4.654545 16.290909-11.636364 25.6-18.618182 9.309091-6.981818 18.618182-16.290909 27.927273-25.6h48.872727c39.563636 0 69.818182-30.254545 69.818182-69.818182v-46.545454c0-11.636364-6.981818-20.945455-18.618182-23.272727 16.290909-37.236364 30.254545-76.8 34.909091-116.363637h4.654545c39.563636 0 69.818182-30.254545 69.818182-69.818182v-46.545454c0-16.290909-9.309091-25.6-23.272727-25.6zM558.545455 907.636364c0 13.963636-9.309091 23.272727-23.272728 23.272727h-46.545454c-13.963636 0-23.272727-9.309091-23.272728-23.272727v-23.272728h93.09091v23.272728z m-46.545455-465.454546c25.6 0 46.545455 20.945455 46.545455 46.545455s-20.945455 46.545455-46.545455 46.545454-46.545455-20.945455-46.545455-46.545454 20.945455-46.545455 46.545455-46.545455z m-6.981818 139.636364h13.963636l118.690909 281.6c-11.636364 4.654545-23.272727 6.981818-32.581818 9.309091V861.090909c0-13.963636-9.309091-23.272727-23.272727-23.272727h-46.545455v-186.181818c0-13.963636-9.309091-23.272727-23.272727-23.272728s-23.272727 9.309091-23.272727 23.272728v186.181818h-46.545455c-13.963636 0-23.272727 9.309091-23.272727 23.272727v11.636364c-11.636364-2.327273-23.272727-6.981818-32.581818-9.309091L505.018182 581.818182zM232.727273 744.727273c0 13.963636-9.309091 23.272727-23.272728 23.272727H162.909091c-13.963636 0-23.272727-9.309091-23.272727-23.272727v-23.272728h93.090909v23.272728zM139.636364 488.727273c0 13.963636-9.309091 23.272727-23.272728 23.272727H69.818182c-13.963636 0-23.272727-9.309091-23.272727-23.272727v-23.272728h93.090909v23.272728z m93.090909-279.272728c0 13.963636-9.309091 23.272727-23.272728 23.272728H162.909091c-13.963636 0-23.272727-9.309091-23.272727-23.272728V186.181818h93.090909v23.272727z m325.818182-139.636363c0 13.963636-9.309091 23.272727-23.272728 23.272727h-46.545454c-13.963636 0-23.272727-9.309091-23.272728-23.272727V46.545455h93.09091v23.272727z m232.727272 139.636363V186.181818h93.090909v23.272727c0 13.963636-9.309091 23.272727-23.272727 23.272728h-46.545454c-13.963636 0-23.272727-9.309091-23.272728-23.272728z m93.090909 535.272728c0 13.963636-9.309091 23.272727-23.272727 23.272727h-46.545454c-13.963636 0-23.272727-9.309091-23.272728-23.272727v-23.272728h93.090909v23.272728z m93.090909-256c0 13.963636-9.309091 23.272727-23.272727 23.272727h-46.545454c-13.963636 0-23.272727-9.309091-23.272728-23.272727v-23.272728h93.090909v23.272728z" p-id="7145"></path></svg>