<?xml version="1.0" standalone="no"?><!DOCTYPE svg PUBLIC "-//W3C//DTD SVG 1.1//EN" "http://www.w3.org/Graphics/SVG/1.1/DTD/svg11.dtd"><svg t="1658133013913" class="icon" viewBox="0 0 1024 1024" version="1.1" xmlns="http://www.w3.org/2000/svg" p-id="11344" xmlns:xlink="http://www.w3.org/1999/xlink" width="200" height="200"><defs><style type="text/css">@font-face { font-family: feedback-iconfont; src: url("//at.alicdn.com/t/font_1031158_u69w8yhxdu.woff2?t=1630033759944") format("woff2"), url("//at.alicdn.com/t/font_1031158_u69w8yhxdu.woff?t=1630033759944") format("woff"), url("//at.alicdn.com/t/font_1031158_u69w8yhxdu.ttf?t=1630033759944") format("truetype"); }
</style></defs><path d="M387.86048 845.16864l241.31584-241.38752-36.12672-36.1984 327.61856-327.7824 0.93184-0.93184c-106.58816-106.58816-279.52128-106.65984-386.18112 0L399.83104 374.4256l-36.16768-36.1984-241.3568 241.48992c-26.49088 26.4704-26.59328 69.92896 0 96.53248l168.96 169.00096c26.53184 26.44992 70.00064 26.5216 96.59392-0.08192z m231.75168-606.30016a222.58688 222.58688 0 0 1 217.86624 0 222.72 222.72 0 0 1-217.86624 0z m-36.99712 37.26336c53.49376 33.92512 115.94752 47.32928 176.78336 40.46848L550.74816 525.32224 442.0608 416.65536l140.55424-140.52352zM267.23328 531.47648l96.4608-96.65536 168.96 168.96-96.59392 96.52224-168.82688-168.82688z m-96.53248 96.63488l48.30208-48.3328 168.82688 168.84736-48.2304 48.20992L170.7008 628.11136z" p-id="11345"></path></svg>