<?xml version="1.0" standalone="no"?><!DOCTYPE svg PUBLIC "-//W3C//DTD SVG 1.1//EN" "http://www.w3.org/Graphics/SVG/1.1/DTD/svg11.dtd"><svg t="1658132881768" class="icon" viewBox="0 0 1024 1024" version="1.1" xmlns="http://www.w3.org/2000/svg" p-id="9884" xmlns:xlink="http://www.w3.org/1999/xlink" width="200" height="200"><defs><style type="text/css">@font-face { font-family: feedback-iconfont; src: url("//at.alicdn.com/t/font_1031158_u69w8yhxdu.woff2?t=1630033759944") format("woff2"), url("//at.alicdn.com/t/font_1031158_u69w8yhxdu.woff?t=1630033759944") format("woff"), url("//at.alicdn.com/t/font_1031158_u69w8yhxdu.ttf?t=1630033759944") format("truetype"); }
</style></defs><path d="M797.411556 56.888889H226.588444A98.602667 98.602667 0 0 0 128 155.477333v713.045334A98.602667 98.602667 0 0 0 226.588444 967.111111h570.823112A98.602667 98.602667 0 0 0 896 868.522667V155.477333A98.602667 98.602667 0 0 0 797.411556 56.888889zM226.588444 113.777778h570.823112A41.699556 41.699556 0 0 1 839.111111 155.477333V270.222222H184.888889v-114.744889A41.699556 41.699556 0 0 1 226.588444 113.777778z m570.823112 796.444444H226.588444A41.699556 41.699556 0 0 1 184.888889 868.522667V298.666667h654.222222v569.856A41.685333 41.685333 0 0 1 797.411556 910.222222z" fill="" p-id="9885"></path><path d="M506.737778 370.417778c-128.412444 0-232.888889 104.476444-232.888889 232.888889s104.476444 232.888889 232.888889 232.888889 232.888889-104.476444 232.888889-232.888889-104.476444-232.888889-232.888889-232.888889z m0 437.333333c-112.739556 0-204.444444-91.690667-204.444445-204.444444 0-112.739556 91.704889-204.444444 204.444445-204.444445s204.444444 91.704889 204.444444 204.444445c0 112.753778-91.704889 204.444444-204.444444 204.444444z" fill="" p-id="9886"></path><path d="M449.024 715.605333a125.866667 125.866667 0 0 1-68.508444-112.298666 14.222222 14.222222 0 1 0-28.444445 0c0 58.225778 32.156444 110.947556 83.925333 137.585777a14.193778 14.193778 0 0 0 19.157334-6.129777 14.222222 14.222222 0 0 0-6.129778-19.157334zM532.181333 726.968889a127.189333 127.189333 0 0 1-25.443555 2.56 14.222222 14.222222 0 1 0 0 28.444444c10.524444 0 21.020444-1.052444 31.175111-3.143111a14.222222 14.222222 0 0 0-5.731556-27.861333zM321.848889 213.333333h28.444444a14.222222 14.222222 0 1 0 0-28.444444h-28.444444a14.222222 14.222222 0 1 0 0 28.444444zM236.515556 213.333333h28.444444a14.222222 14.222222 0 1 0 0-28.444444h-28.444444a14.222222 14.222222 0 1 0 0 28.444444z" fill="" p-id="9887"></path></svg>