<?xml version="1.0" standalone="no"?><!DOCTYPE svg PUBLIC "-//W3C//DTD SVG 1.1//EN" "http://www.w3.org/Graphics/SVG/1.1/DTD/svg11.dtd"><svg t="1658132949521" class="icon" viewBox="0 0 1024 1024" version="1.1" xmlns="http://www.w3.org/2000/svg" p-id="10523" xmlns:xlink="http://www.w3.org/1999/xlink" width="200" height="200"><defs><style type="text/css">@font-face { font-family: feedback-iconfont; src: url("//at.alicdn.com/t/font_1031158_u69w8yhxdu.woff2?t=1630033759944") format("woff2"), url("//at.alicdn.com/t/font_1031158_u69w8yhxdu.woff?t=1630033759944") format("woff"), url("//at.alicdn.com/t/font_1031158_u69w8yhxdu.ttf?t=1630033759944") format("truetype"); }
</style></defs><path d="M855.466667 413.866667C849.066667 230.4 699.733333 85.333333 514.133333 85.333333c-183.466667 0-332.8 145.066667-341.333333 328.533334-51.2 14.933333-87.466667 64-87.466667 119.466666 0 64 46.933333 115.2 106.666667 125.866667v106.666667c0 59.733333 46.933333 106.666667 106.666667 106.666666v42.666667c0 12.8 8.533333 21.333333 21.333333 21.333333s21.333333-8.533333 21.333333-21.333333v-42.666667h341.333334v42.666667c0 12.8 8.533333 21.333333 21.333333 21.333333s21.333333-8.533333 21.333333-21.333333v-42.666667h19.2c59.733333 0 106.666667-49.066667 106.666667-106.666666v-113.066667c51.2-17.066667 87.466667-66.133333 87.466667-121.6 0-51.2-34.133333-98.133333-83.2-117.333333zM514.133333 128c157.866667 0 288 123.733333 298.666667 279.466667-70.4 0-125.866667 55.466667-128 125.866666v192H341.333333v-189.866666-2.133334c0-68.266667-55.466667-125.866667-123.733333-128 8.533333-153.6 138.666667-277.333333 296.533333-277.333333z m313.6 490.666667c-6.4 2.133333-12.8 6.4-14.933333 10.666666 0 4.266667-2.133333 6.4-2.133333 10.666667v128c0 36.266667-29.866667 64-64 64H298.666667c-36.266667 0-64-29.866667-64-64v-128c0-12.8-8.533333-21.333333-21.333334-21.333333-46.933333 0-85.333333-38.4-85.333333-85.333334s38.4-85.333333 85.333333-85.333333 85.333333 38.4 85.333334 85.333333v213.333334c0 12.8 8.533333 21.333333 21.333333 21.333333h384c12.8 0 21.333333-8.533333 21.333333-21.333333V533.333333c0-46.933333 38.4-85.333333 85.333334-85.333333s85.333333 38.4 85.333333 85.333333c0 40.533333-27.733333 76.8-68.266667 85.333334z" p-id="10524"></path><path d="M407.466667 661.333333h213.333333c12.8 0 21.333333-8.533333 21.333333-21.333333s-8.533333-21.333333-21.333333-21.333333h-213.333333c-12.8 0-21.333333 8.533333-21.333334 21.333333s8.533333 21.333333 21.333334 21.333333z" p-id="10525"></path></svg>