<?xml version="1.0" standalone="no"?><!DOCTYPE svg PUBLIC "-//W3C//DTD SVG 1.1//EN" "http://www.w3.org/Graphics/SVG/1.1/DTD/svg11.dtd"><svg t="1658132750575" class="icon" viewBox="0 0 1024 1024" version="1.1" xmlns="http://www.w3.org/2000/svg" p-id="5820" xmlns:xlink="http://www.w3.org/1999/xlink" width="200" height="200"><defs><style type="text/css">@font-face { font-family: feedback-iconfont; src: url("//at.alicdn.com/t/font_1031158_u69w8yhxdu.woff2?t=1630033759944") format("woff2"), url("//at.alicdn.com/t/font_1031158_u69w8yhxdu.woff?t=1630033759944") format("woff"), url("//at.alicdn.com/t/font_1031158_u69w8yhxdu.ttf?t=1630033759944") format("truetype"); }
</style></defs><path d="M716.8 1024c-3.413333 0-10.24-3.413333-13.653333-3.413333-3.413333-3.413333-3.413333-6.826667-3.413334-13.653334v-648.533333c0-10.24 6.826667-17.066667 17.066667-17.066667 78.506667 0 187.733333-17.066667 187.733333-51.2 0-3.413333 0-3.413333-3.413333-6.826666-34.133333-30.72-201.386667-13.653333-310.613333-3.413334-54.613333 6.826667-98.986667 10.24-129.706667 10.24-10.24 0-17.066667-6.826667-17.066667-17.066666s6.826667-17.066667 17.066667-17.066667c27.306667 0 75.093333-3.413333 126.293333-10.24 163.84-17.066667 293.546667-27.306667 334.506667 10.24 10.24 10.24 13.653333 20.48 13.653333 30.72v648.533333c3.413333 85.333333-180.906667 88.746667-218.453333 88.746667z m17.066667-648.533333v614.4c75.093333-3.413333 170.666667-20.48 170.666666-51.2V341.333333c-47.786667 27.306667-129.706667 34.133333-170.666666 34.133334z" fill="" p-id="5821"></path><path d="M460.8 887.466667c-150.186667 0-375.466667-30.72-375.466667-119.466667v-614.4c0-92.16 194.56-153.6 375.466667-153.6s375.466667 61.44 375.466667 153.6V238.933333c0 10.24-6.826667 17.066667-17.066667 17.066667s-17.066667-6.826667-17.066667-17.066667V153.6c0-54.613333-153.6-119.466667-341.333333-119.466667s-341.333333 64.853333-341.333333 119.466667v614.4c0 34.133333 133.12 85.333333 341.333333 85.333333 95.573333 0 187.733333-13.653333 249.173333-34.133333 10.24-3.413333 17.066667 0 20.48 10.24 3.413333 10.24 0 17.066667-10.24 20.48-64.853333 23.893333-160.426667 37.546667-259.413333 37.546667z" fill="" p-id="5822"></path><path d="M460.8 290.133333C337.92 290.133333 235.52 252.586667 197.973333 238.933333c-6.826667-3.413333-13.653333-13.653333-10.24-23.893333 3.413333-6.826667 13.653333-13.653333 23.893334-10.24 37.546667 13.653333 133.12 51.2 249.173333 51.2s211.626667-34.133333 249.173333-51.2c10.24-3.413333 17.066667 0 23.893334 10.24 3.413333 10.24 0 17.066667-10.24 23.893333-37.546667 13.653333-139.946667 51.2-262.826667 51.2z" fill="" p-id="5823"></path><path d="M460.8 204.8c-47.786667 0-102.4-17.066667-102.4-51.2s54.613333-51.2 102.4-51.2 102.4 17.066667 102.4 51.2-54.613333 51.2-102.4 51.2z m0-68.266667c-40.96 0-64.853333 13.653333-68.266667 17.066667 3.413333 3.413333 27.306667 17.066667 68.266667 17.066667s64.853333-10.24 68.266667-17.066667c-3.413333-6.826667-27.306667-17.066667-68.266667-17.066667z" fill="" p-id="5824"></path></svg>