<?xml version="1.0" standalone="no"?><!DOCTYPE svg PUBLIC "-//W3C//DTD SVG 1.1//EN" "http://www.w3.org/Graphics/SVG/1.1/DTD/svg11.dtd"><svg t="1657778065438" class="icon" viewBox="0 0 1024 1024" version="1.1" xmlns="http://www.w3.org/2000/svg" p-id="11949" xmlns:xlink="http://www.w3.org/1999/xlink" width="200" height="200"><defs><style type="text/css">@font-face { font-family: feedback-iconfont; src: url("//at.alicdn.com/t/font_1031158_u69w8yhxdu.woff2?t=1630033759944") format("woff2"), url("//at.alicdn.com/t/font_1031158_u69w8yhxdu.woff?t=1630033759944") format("woff"), url("//at.alicdn.com/t/font_1031158_u69w8yhxdu.ttf?t=1630033759944") format("truetype"); }
</style></defs><path d="M960.092939 887.320079l-66.524991-536.341501a31.494847 31.494847 0 0 0-31.258636-27.620981h-170.387123v-141.80555C691.922189 81.666139 609.578911 0.401559 508.378093 0.401559S324.84187 81.666139 324.84187 181.552047v141.813423H154.454747a31.494847 31.494847 0 0 0-31.258636 27.620982l-66.477749 536.0423a120.200085 120.200085 0 0 0 28.78629 95.082944 123.050368 123.050368 0 0 0 92.665715 41.872399h660.431199c35.597051 0 69.375275-15.259253 92.665714-41.872399 22.881007-26.156471 33.376664-60.808676 28.825659-94.791617zM387.831565 181.552047c0-65.147092 54.076653-118.160793 120.554401-118.160793s120.554402 53.005828 120.554402 118.160793v141.813423H387.831565V181.552047z m496.03597 759.073061a60.0528 60.0528 0 0 1-45.258095 20.369293H178.170367a60.0528 60.0528 0 0 1-45.258096-20.369293c-11.086186-12.660929-15.967888-28.731174-13.716006-45.549423l63.092053-508.72052h478.06816l0.078737 0.007874 0.078737-0.007874h173.969663l63.139295 509.019721c2.204639 16.511174-2.677062 32.581419-13.755375 45.250222z" fill="" p-id="11950"></path><path d="M309.50388 501.649927a50.045312 49.265815 0 1 0 100.090624 0 50.045312 49.265815 0 1 0-100.090624 0Z" fill="" p-id="11951"></path><path d="M610.389903 501.649927a50.045312 49.265815 0 1 0 100.090624 0 50.045312 49.265815 0 1 0-100.090624 0Z" fill="" p-id="11952"></path></svg>