<?xml version="1.0" standalone="no"?><!DOCTYPE svg PUBLIC "-//W3C//DTD SVG 1.1//EN" "http://www.w3.org/Graphics/SVG/1.1/DTD/svg11.dtd"><svg t="1657775774674" class="icon" viewBox="0 0 1024 1024" version="1.1" xmlns="http://www.w3.org/2000/svg" p-id="9129" xmlns:xlink="http://www.w3.org/1999/xlink" width="200" height="200"><defs><style type="text/css">@font-face { font-family: feedback-iconfont; src: url("//at.alicdn.com/t/font_1031158_u69w8yhxdu.woff2?t=1630033759944") format("woff2"), url("//at.alicdn.com/t/font_1031158_u69w8yhxdu.woff?t=1630033759944") format("woff"), url("//at.alicdn.com/t/font_1031158_u69w8yhxdu.ttf?t=1630033759944") format("truetype"); }
</style></defs><path d="M265.0112 491.52a161.3824 161.3824 0 0 1-160.5632-181.8624l25.8048-209.7152a20.8896 20.8896 0 0 1 20.48-18.0224h228.5568a20.8896 20.8896 0 0 1 20.48 18.0224l25.8048 209.7152A161.3824 161.3824 0 0 1 265.0112 491.52zM168.7552 122.88l-23.7568 192.1024A122.88 122.88 0 0 0 174.4896 409.6a120.4224 120.4224 0 0 0 181.0432 0 122.88 122.88 0 0 0 29.4912-94.6176L361.2672 122.88z" p-id="9130"></path><path d="M245.76 491.52h40.96v450.56H245.76zM204.8 102.4h40.96V368.64H204.8zM286.72 122.88h40.96v245.76H286.72z" p-id="9131"></path><path d="M307.2 942.08h-81.92a20.48 20.48 0 0 1-20.48-20.48v-245.76a21.2992 21.2992 0 0 1 5.7344-14.336l40.96-40.96a20.8896 20.8896 0 0 1 13.1072-6.144 23.3472 23.3472 0 0 1 14.7456 5.7344l40.96 40.96a20.0704 20.0704 0 0 1 7.3728 14.7456v245.76a20.48 20.48 0 0 1-20.48 20.48zM245.76 901.12h40.96v-216.6784l-21.2992-20.48-19.6608 20.0704zM798.72 491.52c-81.92 0-143.36-90.112-143.36-204.8s63.0784-204.8 143.36-204.8S942.08 172.032 942.08 286.72s-63.0784 204.8-143.36 204.8z m0-368.64C743.424 122.88 696.32 197.8368 696.32 286.72s47.104 163.84 102.4 163.84S901.12 375.6032 901.12 286.72s-47.104-163.84-102.4-163.84z" p-id="9132"></path><path d="M778.24 471.04h40.96V942.08h-40.96z" p-id="9133"></path><path d="M839.68 942.08h-81.92a20.48 20.48 0 0 1-20.48-20.48v-245.76a21.2992 21.2992 0 0 1 5.7344-14.336l40.96-40.96a20.8896 20.8896 0 0 1 14.336-6.144 23.3472 23.3472 0 0 1 14.7456 5.7344l40.96 40.96a20.0704 20.0704 0 0 1 6.144 14.7456v245.76a20.48 20.48 0 0 1-20.48 20.48zM778.24 901.12h40.96v-216.6784l-21.2992-20.48-19.6608 20.0704z" p-id="9134"></path></svg>