<?xml version="1.0" standalone="no"?><!DOCTYPE svg PUBLIC "-//W3C//DTD SVG 1.1//EN" "http://www.w3.org/Graphics/SVG/1.1/DTD/svg11.dtd"><svg t="1658132673924" class="icon" viewBox="0 0 1024 1024" version="1.1" xmlns="http://www.w3.org/2000/svg" p-id="5003" xmlns:xlink="http://www.w3.org/1999/xlink" width="200" height="200"><defs><style type="text/css">@font-face { font-family: feedback-iconfont; src: url("//at.alicdn.com/t/font_1031158_u69w8yhxdu.woff2?t=1630033759944") format("woff2"), url("//at.alicdn.com/t/font_1031158_u69w8yhxdu.woff?t=1630033759944") format("woff"), url("//at.alicdn.com/t/font_1031158_u69w8yhxdu.ttf?t=1630033759944") format("truetype"); }
</style></defs><path d="M704 243.069714l0-147.405714c11.472-10.313143 18.285714-25.147429 18.285714-40.806857 0-30.246857-24.610286-54.857143-54.857143-54.857143l-73.142857 0c-30.246857 0-54.857143 24.610286-54.857143 54.857143 0 16.208 7.072 30.793143 18.285714 40.843429l0 147.369143c-53.805714 15.952-91.428571 65.289143-91.428571 122.644571l0 73.142857c0 10.098286 8.187429 18.285714 18.285714 18.285714s18.285714-8.187429 18.285714-18.285714l0-73.142857c0-44.006857 32.761143-82.749714 76.201143-90.121143 1.517714-0.258286 2.96-0.710857 4.317714-1.307429l94.962286 0c1.357714 0.598857 2.797714 1.049143 4.317714 1.307429C726.096 282.964571 758.857143 321.707429 758.857143 365.714286l0 73.142857-128 0c-10.098286 0-18.285714 8.187429-18.285714 18.285714l0 347.428571c0 10.098286 8.187429 18.285714 18.285714 18.285714l128 0 0 164.571429L502.857143 987.428571l0-224c0-0.290286-0.029714-0.571429-0.043429-0.857143C536.48 732.416 557.714286 688.646857 557.714286 640c0-25.419429-5.933714-75.657143-15.483429-131.104-1.510857-8.770286-9.12-15.181714-18.020571-15.181714L262.075429 493.714286c-8.900571 0-16.509714 6.411429-18.020571 15.181714C234.505143 564.342857 228.571429 614.580571 228.571429 640c0 84.562286 64.118857 154.402286 146.285714 163.531429L374.857143 987.428571l-54.857143 0c-10.098286 0-18.285714 8.187429-18.285714 18.285714s8.187429 18.285714 18.285714 18.285714l164.571429 0 292.571429 0c10.098286 0 18.285714-8.187429 18.285714-18.285714L795.428571 365.714286C795.428571 308.358857 757.805714 259.021714 704 243.069714zM612.571429 109.714286c10.098286 0 18.285714-8.187429 18.285714-18.285714s-8.187429-18.285714-18.285714-18.285714l-18.285714 0c-10.082286 0-18.285714-8.203429-18.285714-18.285714s8.203429-18.285714 18.285714-18.285714l73.142857 0c10.082286 0 18.285714 8.203429 18.285714 18.285714 0 6.466286-3.522286 12.532571-9.193143 15.833143-6.608 3.842286-9.901714 11.190857-8.914286 18.322286C667.501714 89.805714 667.428571 90.608 667.428571 91.428571l0 146.285714-73.142857 0L594.285714 109.714286 612.571429 109.714286zM265.142857 640c0-20.898286 4.788571-62.914286 12.409143-109.714286L466.285714 530.285714l0 73.142857-164.571429 0c-10.098286 0-18.285714 8.187429-18.285714 18.285714s8.187429 18.285714 18.285714 18.285714l182.857143 0c10.098286 0 18.285714-8.187429 18.285714-18.285714l0-91.428571 5.876571 0c7.620571 46.8 12.409143 88.816 12.409143 109.714286 0 70.580571-57.421714 128-128 128S265.142857 710.580571 265.142857 640zM411.428571 803.531429c19.513143-2.166857 37.997714-7.762286 54.857143-16.164571L466.285714 987.428571l-54.857143 0L411.428571 803.531429zM649.142857 786.285714 649.142857 475.428571l109.714286 0 0 310.857143L649.142857 786.285714z" p-id="5004"></path></svg>