<?xml version="1.0" standalone="no"?><!DOCTYPE svg PUBLIC "-//W3C//DTD SVG 1.1//EN" "http://www.w3.org/Graphics/SVG/1.1/DTD/svg11.dtd"><svg t="1658133609951" class="icon" viewBox="0 0 1024 1024" version="1.1" xmlns="http://www.w3.org/2000/svg" p-id="34704" xmlns:xlink="http://www.w3.org/1999/xlink" width="200" height="200"><defs><style type="text/css">@font-face { font-family: feedback-iconfont; src: url("//at.alicdn.com/t/font_1031158_u69w8yhxdu.woff2?t=1630033759944") format("woff2"), url("//at.alicdn.com/t/font_1031158_u69w8yhxdu.woff?t=1630033759944") format("woff"), url("//at.alicdn.com/t/font_1031158_u69w8yhxdu.ttf?t=1630033759944") format("truetype"); }
</style></defs><path d="M740.693333 293.461333l21.333334-42.453333A358.144 358.144 0 0 1 874.666667 512c0 198.997333-162.346667 360.277333-362.666667 360.277333-26.453333 0-52.821333-2.816-78.677333-8.490666l32.810666-39.808c14.933333 2.176 30.293333 3.242667 45.866667 3.242666 175.274667 0 317.354667-141.098667 317.354667-315.221333a313.173333 313.173333 0 0 0-88.661334-218.538667z m-372.949333-62.293333C264.96 283.306667 194.645333 389.418667 194.645333 512a314.069333 314.069333 0 0 0 127.701334 252.757333l-11.818667 46.933334C213.333333 747.008 149.333333 636.928 149.333333 512c0-157.013333 101.12-290.56 242.176-339.925333L367.786667 231.125333zM466.645333 106.666667h317.354667l-158.677333 315.306666h113.322666L330.666667 917.333333l90.666666-360.277333H285.312L466.645333 106.666667z" p-id="34705"></path></svg>