<?xml version="1.0" standalone="no"?><!DOCTYPE svg PUBLIC "-//W3C//DTD SVG 1.1//EN" "http://www.w3.org/Graphics/SVG/1.1/DTD/svg11.dtd"><svg t="1658133447459" class="icon" viewBox="0 0 1024 1024" version="1.1" xmlns="http://www.w3.org/2000/svg" p-id="30102" xmlns:xlink="http://www.w3.org/1999/xlink" width="200" height="200"><defs><style type="text/css">@font-face { font-family: feedback-iconfont; src: url("//at.alicdn.com/t/font_1031158_u69w8yhxdu.woff2?t=1630033759944") format("woff2"), url("//at.alicdn.com/t/font_1031158_u69w8yhxdu.woff?t=1630033759944") format("woff"), url("//at.alicdn.com/t/font_1031158_u69w8yhxdu.ttf?t=1630033759944") format("truetype"); }
</style></defs><path d="M285.203 91.216l-0.008 0.008c23.743-23.743 51.082-39.961 81.292-48.203 32.266-8.805 66.365-6.746 100.737 0.49 5.064 1.447 5.607 1.627 10.774 3.143 57.958 17 94.269 99.329 82.364 199.475-6.497 54.578-26.472 102.123-54.809 130.46-21.061 21.061-45.832 30.386-70.276 26.584-3.656 0.763-9.231 2.561-12.255 5.585-0.867 0.867-2.672 2.672-2.315 8.438 0.006 0.36 0.015 0.717 0.038 1.093 4.684 36.234 12.135 72.843 22.127 108.86 9.193 33.095 20.478 65.537 33.585 96.485 5.728 8.197 10.13 10.74 11.897 10.923 1.272 0.13 3.428-1.11 3.443-1.126 15.805-15.075 36.547-21.923 60.29-20.133 44.698 3.381 95.743 36.86 136.542 89.572 62.553 80.805 77.292 174.17 34.284 217.178-0.137 0.137-1.096 1.065-1.24 1.21-2.088 1.996-4.281 3.793-6.543 5.446-25.229 27.573-55.012 46.359-88.171 55.416-153.519 41.88-331.019-131.507-404.097-394.713C166.478 384.284 191.531 184.888 285.203 91.216zM469.936 340.973c20.194-20.195 35.293-57.869 40.404-100.792 8.912-74.849-15.946-136.663-43.117-144.932-4.161-1.267-6.875-1.952-9.044-2.533-25.688-6.874-54.565-7.6-78.438-1.097-21.649 5.895-41.46 17.755-58.919 35.214-79.975 79.975-100.291 263.816-49.413 447.097 63.367 228.253 220.116 392.925 342.297 359.589 24.497-6.704 46.831-21.176 65.745-42.496 1.401-1.554 2.969-2.94 4.691-4.111 0.975-0.641 1.935-1.327 2.804-2.134 21.153-21.153 9.102-90.029-38.165-151.082-31.237-40.365-70.688-67.915-100.486-70.17-13.97-1.053-19.568 4.303-21.412 6.054-1.547 1.547-18.745 17.71-43.807 15.075-19.112-2.006-35.909-13.818-49.893-35.086-0.821-1.249-1.539-2.575-2.134-3.961-14.35-33.639-26.706-68.967-36.714-104.998-10.907-39.303-18.96-79.302-23.933-118.904-0.223-1.76-0.259-3.519-0.122-5.242-0.153-17.003 5.721-31.923 17.125-43.326 18.083-18.083 43.813-20.414 46.696-20.613 2.489-0.176 5.01 0.014 7.456 0.587C452.471 355.635 463.012 347.896 469.936 340.973zM646.079 404.744c8.509-8.508 22.145-9.987 32.402-2.911 19.417 13.4 32.457 33.57 36.724 56.788 4.243 23.211-0.785 46.702-14.198 66.118-7.999 11.564-23.805 14.451-35.359 6.475-11.557-7.974-14.458-23.811-6.475-35.357 5.689-8.249 7.831-18.221 6.018-28.077-1.789-9.85-7.335-18.411-15.585-24.117-11.563-7.967-14.449-23.789-6.481-35.352C644.016 407.022 645.006 405.817 646.079 404.744zM708.108 345.306c8.509-8.508 22.127-10.001 32.38-2.918 70.461 48.615 88.222 145.476 39.594 215.92-7.952 11.516-23.803 14.45-35.358 6.477-11.539-7.962-14.443-23.8-6.468-35.339 32.693-47.379 20.749-112.523-26.63-145.215-11.556-7.976-14.457-23.813-6.475-35.361C706.042 347.584 707.033 346.382 708.108 345.306zM758.055 256.116c8.508-8.508 22.126-10.004 32.387-2.926 58.607 40.446 97.952 101.288 110.786 171.327 12.843 70.034-2.361 140.875-42.809 199.483-7.96 11.524-23.796 14.443-35.36 6.476-11.555-7.976-14.441-23.797-6.474-35.36 32.732-47.416 45.033-104.751 34.651-161.433-10.405-56.687-42.245-105.926-89.67-138.666-11.541-7.96-14.451-23.788-6.484-35.352C755.98 258.369 756.979 257.19 758.055 256.116z" p-id="30103"></path></svg>