<?xml version="1.0" standalone="no"?><!DOCTYPE svg PUBLIC "-//W3C//DTD SVG 1.1//EN" "http://www.w3.org/Graphics/SVG/1.1/DTD/svg11.dtd"><svg t="1658287168153" class="icon" viewBox="0 0 1024 1024" version="1.1" xmlns="http://www.w3.org/2000/svg" p-id="7686" xmlns:xlink="http://www.w3.org/1999/xlink" width="200" height="200"><defs><style type="text/css">@font-face { font-family: feedback-iconfont; src: url("//at.alicdn.com/t/font_1031158_u69w8yhxdu.woff2?t=1630033759944") format("woff2"), url("//at.alicdn.com/t/font_1031158_u69w8yhxdu.woff?t=1630033759944") format("woff"), url("//at.alicdn.com/t/font_1031158_u69w8yhxdu.ttf?t=1630033759944") format("truetype"); }
</style></defs><path d="M1006.933333 648.533333h-477.866666c-10.24 0-17.066667-6.826667-17.066667-17.066666s6.826667-17.066667 17.066667-17.066667H989.866667V204.8H341.333333v187.733333c0 10.24-6.826667 17.066667-17.066666 17.066667s-17.066667-10.24-17.066667-17.066667v-204.8c0-10.24 6.826667-17.066667 17.066667-17.066666h682.666666c10.24 0 17.066667 6.826667 17.066667 17.066666v443.733334c0 6.826667-6.826667 17.066667-17.066667 17.066666z" fill="" p-id="7687"></path><path d="M447.146667 853.333333c-10.24 0-17.066667 0-23.893334-3.413333l-273.066666-51.2c-10.24 0-13.653333-6.826667-13.653334-17.066667l34.133334-187.733333v-3.413333c30.72-58.026667 95.573333-78.506667 146.773333-78.506667l98.986667-98.986667c34.133333-34.133333 68.266667-40.96 92.16-17.066666l17.066666 17.066666c13.653333 17.066667 20.48 47.786667 3.413334 71.68l-68.266667 85.333334c-13.653333 13.653333-17.066667 27.306667-17.066667 44.373333 0 23.893333 6.826667 44.373333 23.893334 58.026667 10.24 10.24 27.306667 13.653333 44.373333 10.24h225.28c6.826667 0 13.653333 3.413333 17.066667 13.653333 3.413333 6.826667 0 13.653333-6.826667 20.48l-153.6 102.4c-23.893333 17.066667-102.4 34.133333-146.773333 34.133333z m-273.066667-81.92l256 47.786667c27.306667 6.826667 122.88-13.653333 139.946667-30.72l109.226666-71.68H512c-23.893333 3.413333-47.786667-3.413333-68.266667-20.48-20.48-20.48-34.133333-47.786667-34.133333-81.92 0-23.893333 6.826667-40.96 20.48-61.44l68.266667-85.333333c6.826667-13.653333 3.413333-23.893333 0-30.72l-17.066667-17.066667c-13.653333-13.653333-44.373333 17.066667-44.373333 17.066667l-102.4 102.4c0 3.413333-6.826667 6.826667-10.24 6.826666-44.373333 0-98.986667 17.066667-119.466667 58.026667l-30.72 167.253333z" fill="" p-id="7688"></path><path d="M17.066667 853.333333c-10.24 0-17.066667-10.24-17.066667-17.066666v-307.2c0-3.413333 3.413333-10.24 3.413333-13.653334s6.826667-3.413333 13.653334-3.413333c23.893333 0 146.773333 3.413333 180.906666 37.546667 6.826667 3.413333 6.826667 10.24 6.826667 13.653333-10.24 109.226667-34.133333 221.866667-34.133333 225.28 0 3.413333-3.413333 6.826667-6.826667 10.24-3.413333 3.413333-88.746667 54.613333-146.773333 54.613333z m17.066666-307.2v269.653334c34.133333-6.826667 81.92-30.72 105.813334-44.373334 6.826667-23.893333 23.893333-116.053333 30.72-201.386666-23.893333-13.653333-88.746667-20.48-136.533334-23.893334zM873.813333 546.133333h-37.546666c-10.24 0-17.066667-6.826667-17.066667-17.066666s6.826667-17.066667 17.066667-17.066667h27.306666c6.826667-10.24 13.653333-20.48 23.893334-23.893333V331.093333c-10.24-6.826667-20.48-13.653333-23.893334-23.893333h-27.306666c-10.24 0-17.066667-10.24-17.066667-17.066667s6.826667-17.066667 17.066667-17.066666h37.546666c6.826667 0 13.653333 3.413333 17.066667 10.24 3.413333 10.24 10.24 17.066667 20.48 20.48 6.826667 3.413333 10.24 10.24 10.24 17.066666v177.493334c0 6.826667-3.413333 13.653333-10.24 17.066666-10.24 3.413333-17.066667 10.24-20.48 20.48-3.413333 3.413333-10.24 10.24-17.066667 10.24zM423.253333 337.92c-6.826667 0-13.653333-3.413333-17.066666-10.24-3.413333-10.24 0-17.066667 10.24-20.48 10.24-3.413333 17.066667-10.24 20.48-20.48 3.413333-10.24 6.826667-13.653333 17.066666-13.653333h37.546667c10.24 0 17.066667 6.826667 17.066667 17.066666s-10.24 17.066667-17.066667 17.066667h-27.306667c-6.826667 13.653333-20.48 23.893333-37.546666 30.72h-3.413334z" fill="" p-id="7689"></path><path d="M648.533333 546.133333c-27.306667 0-54.613333-10.24-78.506666-23.893333-6.826667-6.826667-10.24-17.066667-3.413334-23.893333 6.826667-6.826667 17.066667-10.24 23.893334-3.413334 17.066667 13.653333 37.546667 20.48 58.026666 20.48 58.026667 0 102.4-44.373333 102.4-102.4s-44.373333-102.4-102.4-102.4c-34.133333 0-68.266667 17.066667-85.333333 47.786667-6.826667 6.826667-17.066667 10.24-23.893333 3.413333-6.826667-6.826667-10.24-17.066667-3.413334-23.893333C559.786667 296.96 600.746667 273.066667 648.533333 273.066667c75.093333 0 136.533333 61.44 136.533334 136.533333s-61.44 136.533333-136.533334 136.533333z" fill="" p-id="7690"></path></svg>